<svg width="52" height="61" viewBox="0 0 52 61" fill="none" xmlns="http://www.w3.org/2000/svg">
<mask id="path-1-inside-1_223_451" fill="white">
<path fill-rule="evenodd" clip-rule="evenodd" d="M29 12H23V49.9587L4.0253 31L0 35.0219L26 61L52 35.0219L48.0115 31.0368L29 50.0322V12Z"/>
</mask>
<path d="M23 12V11H22V12H23ZM29 12H30V11H29V12ZM23 49.9587L22.2932 50.6661L24 52.3715V49.9587H23ZM4.0253 31L4.73211 30.2926L4.0253 29.5864L3.31849 30.2926L4.0253 31ZM0 35.0219L-0.706809 34.3145L-1.41481 35.0219L-0.706809 35.7293L0 35.0219ZM26 61L25.2932 61.7074L26 62.4136L26.7068 61.7074L26 61ZM52 35.0219L52.7068 35.7293L53.4148 35.0219L52.7068 34.3145L52 35.0219ZM48.0115 31.0368L48.7183 30.3294L48.0115 29.6232L47.3047 30.3294L48.0115 31.0368ZM29 50.0322H28V52.445L29.7068 50.7396L29 50.0322ZM23 13H29V11H23V13ZM24 49.9587V12H22V49.9587H24ZM23.7068 49.2513L4.73211 30.2926L3.31849 31.7074L22.2932 50.6661L23.7068 49.2513ZM3.31849 30.2926L-0.706809 34.3145L0.706809 35.7293L4.73211 31.7074L3.31849 30.2926ZM-0.706809 35.7293L25.2932 61.7074L26.7068 60.2926L0.706809 34.3145L-0.706809 35.7293ZM26.7068 61.7074L52.7068 35.7293L51.2932 34.3145L25.2932 60.2926L26.7068 61.7074ZM52.7068 34.3145L48.7183 30.3294L47.3047 31.7442L51.2932 35.7293L52.7068 34.3145ZM47.3047 30.3294L28.2932 49.3248L29.7068 50.7396L48.7183 31.7442L47.3047 30.3294ZM28 12V50.0322H30V12H28Z" fill="#999999" mask="url(#path-1-inside-1_223_451)"/>
</svg>
